<svg width="128" height="128" viewBox="0 0 128 128" fill="none" xmlns="http://www.w3.org/2000/svg">
<path d="M53.3334 80L53.3334 64" stroke="#F97068" stroke-width="8" stroke-linecap="round"/>
<path d="M74.6666 80L74.6666 64" stroke="#F97068" stroke-width="8" stroke-linecap="round"/>
<path d="M16 37.3333H112H100C98.1144 37.3333 97.1716 37.3333 96.5858 37.9191C96 38.5049 96 39.4477 96 41.3333V102.667C96 104.552 96 105.495 95.4142 106.081C94.8284 106.667 93.8856 106.667 92 106.667H36C34.1144 106.667 33.1716 106.667 32.5858 106.081C32 105.495 32 104.552 32 102.667V41.3333C32 39.4477 32 38.5049 31.4142 37.9191C30.8284 37.3333 29.8856 37.3333 28 37.3333H16Z" stroke="#F97068" stroke-width="8" stroke-linecap="round"/>
<path d="M53.6967 17.9765C54.3045 17.4095 55.6436 16.9084 57.5065 16.5511C59.3694 16.1937 61.6519 16 64 16C66.3481 16 68.6305 16.1937 70.4934 16.5511C72.3563 16.9084 73.6954 17.4095 74.3032 17.9765" stroke="#F97068" stroke-width="8" stroke-linecap="round"/>
</svg>
